<svg width="140" height="16" viewBox="0 0 140 16" fill="none" stroke="#5A7A5F" stroke-width="2" stroke-linecap="round" xmlns="http://www.w3.org/2000/svg">
  <line x1="4" y1="8" x2="4" y2="8" />
  <line x1="10" y1="5" x2="10" y2="11" />
  <line x1="16" y1="3" x2="16" y2="13" />
  <line x1="22" y1="6" x2="22" y2="10" />
  <line x1="28" y1="2" x2="28" y2="14" />
  <line x1="34" y1="4" x2="34" y2="12" />
  <line x1="40" y1="7" x2="40" y2="9" />
  <line x1="46" y1="2" x2="46" y2="14" />
  <line x1="52" y1="5" x2="52" y2="11" />
  <line x1="58" y1="8" x2="58" y2="8" />
  <line x1="64" y1="3" x2="64" y2="13" />
  <line x1="70" y1="6" x2="70" y2="10" />
  <line x1="76" y1="4" x2="76" y2="12" />
  <line x1="82" y1="2" x2="82" y2="14" />
  <line x1="88" y1="5" x2="88" y2="11" />
  <line x1="94" y1="7" x2="94" y2="9" />
  <line x1="100" y1="4" x2="100" y2="12" />
</svg>
